<?xml version="1.0" encoding="UTF-8" standalone="no"?>
<svg
   width="498.63907pt"
   height="112.00001pt"
   viewBox="0 0 6864.2654 1546.0001"
   version="1.1"
   id="svg206"
   sodipodi:docname="O Shopping PH (2015).svg"
   inkscape:version="1.2 (dc2aedaf03, 2022-05-15)"
   xmlns:inkscape="http://www.inkscape.org/namespaces/inkscape"
   xmlns:sodipodi="http://sodipodi.sourceforge.net/DTD/sodipodi-0.dtd"
   xmlns="http://www.w3.org/2000/svg"
   xmlns:svg="http://www.w3.org/2000/svg">
  <defs
     id="defs210">
	
	

		
		
		
		
		
	</defs>
  <sodipodi:namedview
     id="namedview208"
     pagecolor="#505050"
     bordercolor="#eeeeee"
     borderopacity="1"
     inkscape:showpageshadow="0"
     inkscape:pageopacity="0"
     inkscape:pagecheckerboard="0"
     inkscape:deskcolor="#505050"
     inkscape:document-units="pt"
     showgrid="false"
     inkscape:zoom="1.4835225"
     inkscape:cx="346.80971"
     inkscape:cy="92.684812"
     inkscape:window-width="1920"
     inkscape:window-height="991"
     inkscape:window-x="-9"
     inkscape:window-y="-9"
     inkscape:window-maximized="1"
     inkscape:current-layer="svg206" />
  <g
     id="g1256">
    <path
       fill="#2099e2"
       opacity="1"
       d="m 2106.5227,224.3 c 21.94,-2.06 43.99,-1.98 66,-1.7 42.59,0.96 85.26,4.58 127.03,13.21 40.37,8.47 80.36,21.41 115.72,43.01 -18.63,52.87 -37.03,105.83 -55.66,158.7 -24.69,-16.55 -53.25,-26.02 -81.66,-33.97 -42.04,-11.68 -85.71,-17.14 -129.31,-17.3 -22.58,0.16 -45.49,2.35 -66.84,10.1 -14.37,5.23 -28.11,13.01 -38.63,24.25 -11.29,11.56 -17.72,27.39 -18.74,43.43 -1.67,18.25 3.63,36.94 14.49,51.68 10.75,15.09 26.19,25.85 41.74,35.5 29.5,18.36 61.36,32.63 93.96,44.53 32.36,12.13 64.3,25.4 95.81,39.61 11.16,5.15 22.48,10 33.28,15.89 23.68,12.76 45.26,29.33 63.96,48.66 15.52,16.16 29.77,33.78 40.55,53.5 12.02,21.9 19.78,46.01 23.71,70.64 4.69,29.72 4,60.02 0.93,89.86 -4.87,45.24 -18.87,90.38 -45.91,127.41 -27.64,38.3 -68.09,65.78 -111.42,83.52 -53.09,21.58 -110.95,28.63 -167.91,28.67 -44.12,-0.2 -88.33,-2.95 -131.9,-10.15 -50.75,-8.35 -100.86,-22.71 -146.77,-46.18 19.21,-53.4 38.72,-106.69 57.89,-160.11 17.92,10.41 37.21,18.21 56.81,24.87 32.81,10.98 66.51,19.65 100.89,23.97 35.08,4.45 70.74,5 105.87,0.74 26.99,-3.61 54.68,-10.37 76.91,-26.84 12.8,-9.54 22.92,-22.82 27.94,-38.04 4.59,-13.72 5.92,-28.53 4.14,-42.87 -2.5,-18.62 -12.8,-35.52 -26.64,-47.94 -9,-8.33 -19.43,-14.87 -29.83,-21.29 -26.69,-16.07 -55.3,-28.74 -84.6,-39.22 -38.58,-13.4 -76.49,-28.69 -113.63,-45.67 -13.73,-6.09 -27.19,-12.84 -39.8,-21.04 -31.34,-20.19 -57.86,-47.44 -78.59,-78.34 -24.3,-36.66 -35.56,-80.73 -37,-124.38 -1.44,-45.88 4.31,-92.91 23.45,-135.03 13.87,-30.8 35.24,-58.15 61.8,-79.03 29.62,-23.74 64.61,-40.26 101.13,-50.26 23.14,-6.38 46.92,-10.32 70.83,-12.39 z"
       id="path181" />
    <path
       fill="#2099e2"
       opacity="1"
       d="m 5380.1127,223.56 c 16.49,0 33.23,2.67 48.22,9.84 26.75,12.74 46.41,38.75 52.39,67.66 3.07,15.2 3.39,31.05 0.4,46.29 -5.47,27.6 -24.48,51.94 -49.54,64.54 -13,6.53 -27.45,9.78 -41.91,10.63 -18.73,1.16 -38.08,-1.21 -55.02,-9.64 -26.63,-13.31 -45.32,-40.56 -49.36,-69.92 -2.73,-20.08 -0.99,-41 6.43,-59.94 8.92,-22.32 25.97,-41.96 48.26,-51.55 12.58,-5.59 26.43,-7.7 40.13,-7.91 z"
       id="path183" />
    <path
       fill="#2099e2"
       opacity="1"
       d="m 2527.8027,226.06 c 11.86,-0.74 23.88,-0.1 35.81,-0.31 46.38,0.05 92.77,-0.11 139.15,0.08 0.88,1.5 0.12,3.49 0.38,5.18 0.06,111.46 -0.15,222.93 0.11,334.38 13.55,-13.42 28.07,-26.05 43.98,-36.68 32.68,-22 69.22,-38.34 107.45,-47.88 22.89,-5.53 46.52,-7.98 70.05,-7.68 42.09,0.3 85.57,8.32 121.35,31.58 16.43,10.72 30.84,24.6 41.91,40.83 10.93,16.06 18.82,34.01 24.83,52.44 14.99,47.09 18.87,96.87 19.57,146.02 0.03,136.98 -0.09,273.98 0.06,410.96 -9.58,0.63 -19.24,0.09 -28.84,0.27 -48.76,0.02 -97.52,-0.03 -146.28,0.03 -0.48,-22.41 -0.07,-44.87 -0.2,-67.3 -0.01,-85.67 0,-171.33 0,-257 -0.17,-27.33 0.66,-54.7 -1.45,-81.97 -1.73,-21.26 -4.71,-42.7 -12.41,-62.71 -5.57,-14.64 -14.76,-28.2 -27.63,-37.36 -17.05,-12.37 -38.36,-17.08 -59.05,-18.36 -19.55,-1.37 -39.47,0.51 -57.98,7.17 -20.11,7.03 -38.2,18.94 -54.02,33.07 -19.04,17.02 -35.18,38.78 -40.35,64.23 -1.58,5.88 -1.03,11.98 -1.11,18 0,113.3 0,226.61 0,339.91 -0.11,20.77 0.21,41.56 -0.15,62.32 -56.12,-0.06 -112.24,-0.01 -168.36,-0.03 -2.29,-0.08 -4.61,0.25 -6.81,-0.26 0.16,-227 0.02,-453.99 0.07,-680.99 -0.05,-82.64 0.1,-165.29 -0.08,-247.94 z"
       id="path185" />
    <path
       fill="#2099e2"
       opacity="1"
       d="m 3496.0927,474.57 c 47.87,-1.98 96.48,1.74 142.53,15.67 36.45,11.01 71.02,28.99 99.81,54.06 27.03,23.52 49.08,52.52 65.86,84.13 20.07,38.02 31.93,80 37.33,122.55 3.45,26.22 4.23,52.71 3.64,79.12 -1.32,46.25 -8.53,92.73 -25.26,136.03 -13.56,35.25 -33.67,68.07 -59.67,95.53 -26.38,28.2 -59.03,50.38 -94.73,65.05 -41.08,17.01 -85.58,24.49 -129.86,25.94 -47.82,1.41 -96.36,-2.89 -142.05,-17.75 -36.96,-11.85 -71.66,-31.25 -100.17,-57.7 -25.05,-23.33 -45.65,-51.31 -61.36,-81.68 -19.49,-37.82 -30.94,-79.43 -36.05,-121.56 -3.37,-27.51 -4.14,-55.3 -3.06,-82.97 1.78,-43.91 8.79,-87.93 24.3,-129.18 13.06,-34.99 32.53,-67.71 57.96,-95.13 25.25,-27.46 56.41,-49.38 90.66,-64.16 40.97,-17.87 85.63,-25.96 130.12,-27.95 m -0.95,144.21 c -18.5,2.18 -36.81,7.42 -53.02,16.73 -15.09,8.58 -28.06,20.74 -38,34.94 -11.96,17.01 -19.82,36.59 -25,56.64 -5.84,22.81 -8.46,46.34 -9.3,69.83 -1.54,43.78 2.58,88.82 20.49,129.27 8.78,19.53 20.3,38.34 36.56,52.54 13.36,11.88 29.62,20.31 46.83,25.07 20.42,5.75 41.9,6.65 62.97,5.08 20.44,-1.75 40.86,-6.86 58.81,-17.03 17.93,-9.97 32.8,-25.02 43.45,-42.48 9.19,-14.96 15.5,-31.54 19.96,-48.48 6.09,-23.46 8.66,-47.7 9.47,-71.89 0.73,-23.19 -0.15,-46.48 -3.16,-69.5 -3.19,-23.39 -8.77,-46.69 -19,-68.06 -8.35,-17.5 -20.08,-33.6 -35.29,-45.74 -14.32,-11.57 -31.45,-19.34 -49.29,-23.62 -21.72,-5.1 -44.36,-5.73 -66.48,-3.3 z"
       id="path187" />
    <path
       fill="#2099e2"
       opacity="1"
       d="m 4221.5527,478.09 c 28.5,-4.73 57.58,-4.97 86.31,-2.45 39.19,3.53 78.49,14.03 111.81,35.53 31.52,20.04 56.41,49.63 72.52,83.2 21.6,44.72 30.46,94.4 34.2,143.58 4.76,68.78 1.64,139.43 -21.07,205.1 -6.62,17.78 -12.4,35.92 -20.41,53.16 -16.6,36.79 -39.79,71.05 -70.42,97.6 -28.73,25.2 -63.79,42.79 -100.79,52.05 -45.57,11.56 -93.4,11.48 -139.68,4.57 -32.69,-4.96 -64.92,-13.18 -95.85,-24.88 -0.07,75.47 -0.04,150.95 -0.01,226.42 -0.28,1.05 0.67,3.67 -1.34,3.26 -55.14,0.04 -110.27,0.03 -165.41,0 -0.07,-291.74 -0.03,-583.48 -0.02,-875.23 54.24,0 108.48,0.01 162.71,0 0,27.97 0.12,55.94 -0.06,83.92 12.75,-16.03 27.15,-30.83 43.65,-43.02 30.34,-22.68 66.59,-36.78 103.86,-42.81 m -22.21,137.71 c -16.77,1.79 -33.46,5.69 -48.73,12.97 -14.81,6.96 -27.41,17.78 -38.43,29.73 -12.65,13.89 -22.7,30.18 -29.06,47.87 -2.5,7.65 -5.63,15.45 -4.99,23.64 -0.01,81.34 0.02,162.67 -0.01,244 -0.46,1.89 1.54,2.72 2.71,3.76 17.98,14.43 39.51,24.02 61.87,29.28 21.24,4.97 43.23,6.48 64.99,5.23 22.34,-1.26 44.72,-5.68 65.16,-15 17.08,-7.73 32.49,-19.18 44.62,-33.5 12.87,-15.11 21.87,-33.16 28.3,-51.85 7.82,-23.21 11.98,-47.49 14.18,-71.83 1.92,-21.98 2.4,-44.08 1.6,-66.13 -1.19,-25.02 -4.62,-50.16 -12.8,-73.93 -6.69,-19.17 -16.8,-37.5 -31.45,-51.76 -12.5,-12.47 -28.29,-21.41 -45.09,-26.68 -23.48,-7.42 -48.54,-8.03 -72.87,-5.8 z"
       id="path189" />
    <path
       fill="#2099e2"
       opacity="1"
       d="m 4862.7627,489.32 c 43.03,-15.45 89.71,-17.63 134.87,-13.07 36.97,3.91 73.85,14.15 105.56,34 25.72,15.97 47.45,38.17 63.21,64 19.52,31.69 30.81,67.75 37.73,104.13 7.55,40.43 9.78,81.68 9.44,122.74 -0.68,42.37 -5.04,84.98 -16.78,125.83 -3.95,14.29 -9.59,28.01 -14.37,42.02 -10.64,29.31 -24.66,57.54 -43.04,82.79 -19.07,26.32 -43.11,49.14 -70.96,65.98 -31.71,19.32 -67.91,30.61 -104.66,35.04 -43.71,5.32 -88.14,1.67 -131.09,-7.5 -22.79,-4.87 -45.24,-11.38 -67.03,-19.67 -0.02,76.54 -0.01,153.07 -0.01,229.61 -55.03,0.07 -110.06,0.02 -165.08,0.03 -0.43,-0.06 -1.3,-0.16 -1.73,-0.21 0.13,-215.36 0.02,-430.72 0.06,-646.08 -0.04,-76.29 0.06,-152.59 -0.05,-228.88 52.86,-0.13 105.74,-0.15 158.61,0.01 -0.14,27.88 -0.02,55.76 -0.06,83.64 5.7,-5.57 10.64,-12.05 16.47,-17.58 24.94,-25.22 55.43,-45.01 88.91,-56.83 m 17.75,127.13 c -21.36,2.76 -42.65,9.47 -60.15,22.33 -27.64,20.58 -47.73,51.37 -54.68,85.18 -0.07,83.95 -0.12,167.92 0.03,251.87 10.97,10.41 24.17,18.24 38.23,23.74 17.74,7 36.64,10.74 55.61,12.36 22.36,1.76 45.05,0.84 67.01,-3.91 18.95,-4.12 37.36,-11.51 53.19,-22.84 13.95,-9.89 25.73,-22.74 34.75,-37.26 9.23,-14.99 15.88,-31.46 20.61,-48.38 9.89,-35.61 12.41,-72.82 12.43,-109.62 -0.25,-22.42 -1.94,-44.93 -6.76,-66.87 -4.23,-19.19 -10.89,-38.07 -21.56,-54.66 -8.17,-12.85 -18.86,-24.16 -31.54,-32.61 -15.52,-10.5 -33.71,-16.53 -52.15,-19.22 -18.23,-2.58 -36.79,-2.37 -55.02,-0.11 z"
       id="path191" />
    <path
       fill="#2099e2"
       opacity="1"
       d="m 6452.6927,496.06 c 44.26,-13.64 90.73,-18.77 136.92,-19.32 53.45,-0.27 106.99,2.45 159.97,9.74 41.95,5.8 83.59,14.39 124.05,27.01 v 607.84 c -1.51,4.02 -0.94,8.46 -1.64,12.67 -2.31,21.85 -6.66,43.57 -13.85,64.36 -11.47,33.98 -31.05,65.37 -57.49,89.7 -27.29,25.4 -61,43.12 -96.3,54.56 -41.52,13.41 -85.25,18.75 -128.75,19.81 -47.86,0.58 -95.87,-1.25 -143.3,-7.99 -39.58,-5.75 -79.04,-15.01 -115.34,-32.16 12.12,-37.85 24.69,-75.59 35.03,-113.99 2.46,-8.43 3.88,-17.16 6.64,-25.51 50.5,24.37 105.24,41.79 161.61,43.81 24.13,0.63 48.38,-0.35 72.24,-4.27 19.62,-3.34 39.23,-8.73 56.53,-18.83 14.69,-8.52 26.72,-21.23 35.28,-35.84 9.21,-15.74 14.28,-33.6 16.77,-51.59 3.05,-20.54 1.12,-41.35 2.11,-61.99 -2.86,11.41 -9.05,21.81 -17.6,29.87 -12.65,12.17 -28.78,19.98 -45.22,25.62 -20.58,6.86 -42.1,10.41 -63.64,12.4 -25.95,2.33 -52.06,2.21 -78.06,1.08 -23.78,-1.37 -47.72,-2.63 -71,-7.98 -32.42,-7.22 -63.5,-21.6 -88.81,-43.27 -28.37,-24.04 -48.98,-56.23 -62.37,-90.71 -15.99,-41.06 -22.93,-85.17 -24.28,-129.07 -0.34,-14 0.26,-27.99 0.19,-41.99 -0.21,-27.32 1.55,-54.68 5.82,-81.68 6.09,-38.32 17.6,-76.1 36.8,-109.97 16.7,-29.63 39.39,-55.91 66.48,-76.51 27.22,-20.77 58.55,-35.75 91.21,-45.8 m 85.84,124.08 c -18.85,3.84 -37.29,10.65 -53.22,21.56 -15.24,10.19 -27.89,23.98 -37.39,39.61 -10.27,16.82 -16.99,35.6 -21.36,54.76 -5.31,23.26 -7.15,47.16 -7.43,70.97 -0.01,23.75 1.52,47.61 6.34,70.91 4.19,20.11 10.88,39.93 21.76,57.47 9.42,15.1 21.88,28.47 36.93,38.1 17.07,11.13 37.28,16.81 57.53,18.03 22.39,0.85 45.03,-0.52 66.87,-5.85 20.45,-4.98 39.85,-14.3 56.31,-27.45 14.45,-11.55 27.07,-25.35 37.96,-40.26 0.09,-93.99 0.06,-187.99 0.01,-281.98 -27.39,-8.86 -55.47,-16.19 -84.24,-18.48 -26.65,-2.12 -53.73,-2.66 -80.07,2.61 z"
       id="path193" />
    <path
       fill="#2099e2"
       opacity="1"
       d="m 5301.4227,477.76 c 55.07,-0.01 110.14,-0.03 165.21,0.01 0,225.07 0.01,450.15 -0.01,675.23 -55.08,0 -110.16,0.01 -165.24,-0.01 0.02,-225.08 -0.05,-450.15 0.04,-675.23 z"
       id="path195" />
    <path
       fill="#2099e2"
       opacity="1"
       d="m 5594.6327,480.01 c 55.66,-0.02 111.33,-0.01 166.99,-0.01 0.09,38.06 -0.13,76.12 0.11,114.17 6.23,-8.06 11.97,-16.59 18.71,-24.29 16.19,-19.18 34.99,-36.27 56.17,-49.79 42.47,-27.56 93.7,-39.49 143.98,-38.84 26.32,-0.09 52.84,2.39 78.28,9.44 21.85,6.08 42.82,16.09 60.23,30.77 13.75,11.51 25.24,25.7 33.68,41.54 11.51,21.32 18.41,44.8 23.31,68.43 9.56,47.54 10.65,96.23 10.54,144.55 0,126.42 0,252.84 0,379.26 -57.08,0.01 -114.15,0.04 -171.22,-0.01 -0.08,-110.08 -0.01,-220.15 -0.03,-330.23 -0.08,-32.4 0.9,-64.99 -3.94,-97.14 -3.22,-20.84 -8.52,-42.19 -21.27,-59.4 -7.94,-10.82 -18.71,-19.51 -30.9,-25.09 -12.13,-5.6 -25.39,-8.33 -38.63,-9.44 -26.89,-2.29 -54.61,1.35 -79.2,12.79 -32.83,15.43 -60.74,42.56 -74.62,76.33 -2.02,5.18 -4.12,10.39 -5.16,15.86 -0.08,66.68 -0.01,133.37 -0.03,200.06 -0.14,62.69 0.45,125.4 -0.75,188.07 0.16,9.4 -0.45,18.79 -0.25,28.2 -55.34,0.02 -110.67,0.03 -166,-0.01 0,-225.08 0,-450.15 0,-675.22 z"
       id="path197" />
    <g
       id="g1134"
       transform="translate(0.02578697)">
      <path
         fill="#2099e2"
         d="M 763.60424,1.4636e-6 C 336.68519,1.4636e-6 -9.3930751,346.08369 -9.3930751,773.00275 c 0,426.91365 346.0782651,772.99735 772.9973151,772.99735 426.91366,0 772.99736,-346.0837 772.99736,-772.99735 C 1536.6016,346.08369 1190.5179,1.4636001e-6 763.60424,1.4636e-6 Z M 761.25403,1137.2314 c -200.57678,0 -363.17022,-162.60432 -363.17022,-363.17567 0,-200.57678 162.59344,-363.18108 363.17022,-363.18108 200.57136,0 363.17567,162.6043 363.17567,363.18108 0.01,200.56593 -162.59889,363.17567 -363.17567,363.17567 z"
         id="path2"
         style="stroke-width:5.42774" />
      <path
         fill="#fdc21d"
         d="m 1443.0924,404.26909 c 21.8467,45.76129 34.1134,96.97747 34.1134,151.07034 0,166.31145 -115.7032,305.5059 -270.9909,341.73607 16.3375,133.5822 80.6562,252.656 175.5766,340.0589 97.1892,-129.2562 154.8155,-289.96084 154.8155,-464.13165 -0.01,-133.53874 -33.918,-259.13669 -93.5146,-368.73366 z"
         id="path4"
         style="font-variation-settings:normal;opacity:1;vector-effect:none;fill:#fdc21d;fill-opacity:1;stroke-width:0.99982;stroke-linecap:butt;stroke-linejoin:miter;stroke-miterlimit:4;stroke-dasharray:none;stroke-dashoffset:0;stroke-opacity:1;-inkscape-stroke:none;stop-color:#000000;stop-opacity:1" />
      <path
         fill="#fdc21d"
         d="m 1430.652,382.25959 c -0.027,0.0217 -0.054,0.0434 -0.081,0.0651 2.8659,4.87954 5.6883,9.78079 8.451,14.72546 -2.7627,-4.9501 -5.5091,-9.91106 -8.3696,-14.7906 z"
         id="path6"
         style="stroke-width:5.42774" />
      <path
         fill="#ed2827"
         d="m 1442.8373,403.69918 c -1.2212,-2.24166 -2.5727,-4.41276 -3.8211,-6.64899 1.3515,2.41535 2.7464,4.78727 4.0708,7.2189 -0.087,-0.18997 -0.1574,-0.38537 -0.2497,-0.56991 z"
         id="path8"
         style="stroke-width:5.42774" />
      <path
         fill="#ed2827"
         d="M 1430.5652,382.32473 C 1423.52,370.34027 1416.2631,358.48608 1408.6045,346.92499 1344.6766,260.43935 1242,204.33278 1126.1937,204.33278 c -143.40637,0 -266.6324,86.046 -321.11608,209.27202 179.89166,21.65127 319.35208,174.7136 319.35208,360.45093 0,46.27693 -8.7441,90.49674 -24.5388,131.20481 8.6952,0.6459 17.4393,1.08012 26.2974,1.08012 27.5458,0 54.2991,-3.2675 80.0157,-9.26516 -2.6921,-22.05291 -4.125,-44.48577 -4.125,-67.25515 0.01,-183.18629 89.802,-345.7526 228.4862,-447.49562 z"
         id="path10"
         style="font-variation-settings:normal;opacity:1;vector-effect:none;fill:#f12f1e;fill-opacity:1;stroke-width:0.99982;stroke-linecap:butt;stroke-linejoin:miter;stroke-miterlimit:4;stroke-dasharray:none;stroke-dashoffset:0;stroke-opacity:1;-inkscape-stroke:none;stop-color:#000000;stop-opacity:1" />
      <path
         fill="#fa3e0a"
         d="m 1477.2004,555.33401 c 0,-54.09288 -12.2613,-105.30906 -34.1134,-151.07035 -1.3244,-2.43163 -2.7193,-4.79812 -4.0708,-7.2189 -2.7573,-4.94467 -5.5797,-9.84592 -8.451,-14.72546 -138.6842,101.74303 -228.4808,264.30933 -228.4808,447.49562 0,22.76396 1.4329,45.19681 4.1251,67.25516 155.2877,-36.22475 270.9909,-175.42463 270.9909,-341.73607 z"
         id="path12"
         style="display:inline;stroke-width:5.42774" />
    </g>
  </g>
</svg>
